<?xml version="1.0" encoding="UTF-8"?>
<svg xmlns="http://www.w3.org/2000/svg" width="82" height="79" viewBox="0 0 82 79" fill="none">
  <circle cx="36.5" cy="36.5" r="36.5" fill="#89C6FD"></circle>
  <path d="M42.3818 55.5928C40.3806 53.5908 43.424 50.5481 45.4252 52.5494L52.5876 59.7118L68.5759 43.7234C70.5772 41.7222 73.6206 44.7649 71.6186 46.7668L54.1089 64.2766C53.2683 65.1164 51.9056 65.1164 51.0655 64.2766L42.3818 55.5928ZM39.9827 29H74.0173C78.4122 29 82 32.5878 82 36.9826V71.0173C82 75.4122 78.4122 79 74.0173 79H39.9827C35.5878 79 32 75.4122 32 71.0173V36.9826C32 32.5878 35.5878 29 39.9827 29ZM74.0173 33.3042H39.9827C37.9636 33.3042 36.3045 34.9633 36.3045 36.9823V71.017C36.3045 73.036 37.9636 74.6951 39.9827 74.6951H74.0173C76.0364 74.6951 77.6955 73.036 77.6955 71.017V36.9823C77.6955 34.9633 76.0364 33.3042 74.0173 33.3042Z" fill="#0023A0"></path>
</svg>
